<?xml version="1.0" standalone="no"?><!-- Generator: Gravit.io --><svg xmlns="http://www.w3.org/2000/svg" xmlns:xlink="http://www.w3.org/1999/xlink" style="isolation:isolate" viewBox="433.578 262 317.529 401.881" width="317.529" height="401.881"><defs><clipPath id="_clipPath_4xBWvJbjo8OS3JDPYZhvzYjbrslMAVdh"><rect x="433.578" y="262" width="317.529" height="401.881"/></clipPath></defs><g clip-path="url(#_clipPath_4xBWvJbjo8OS3JDPYZhvzYjbrslMAVdh)"><g><path d=" M 463 397.5 C 463 322.716 524.164 262 599.5 262 C 674.836 262 736 322.716 736 397.5 C 736 472.284 674.836 533 599.5 533 C 524.164 533 463 472.284 463 397.5 Z " fill="rgb(0,173,181)"/><path d=" M 564 292 C 558.576 305.524 554.253 318.2 551 330 L 510 330 C 524.608 312.3 542.618 299.643 564 292 Z " fill="rgb(255,255,255)"/><path d=" M 497 353 L 546 353 L 544 387 L 488 387 C 489.197 376.728 492.207 365.405 497 353 Z " fill="rgb(255,255,255)"/><path d=" M 488 410 L 544 410 C 544.43 420.669 545.44 432.012 547 444 L 497 444 C 492.862 434.479 489.872 423.155 488 410 Z " fill="rgb(255,255,255)"/><path d=" M 510 466 L 551 466 C 553.483 477.915 557.826 490.925 564 505 C 543.013 497.58 525.023 484.59 510 466 Z " fill="rgb(255,255,255)"/><path d=" M 574 331 C 581.375 304.464 589.718 289.474 599 286 C 608.658 285.744 617.668 300.754 626 331 L 574 331 Z " fill="rgb(255,255,255)"/><path d=" M 636 292 C 655.757 298.027 673.767 311.037 690 331 L 650 331 C 645.778 316 641.121 303.01 636 292 Z " fill="rgb(255,255,255)"/><path d=" M 653 353 L 703 353 C 706.522 360.839 709.532 372.182 712 387 L 656 387 L 653 353 Z " fill="rgb(255,255,255)"/><path d=" M 641 404 Q 636.282 399.647 624.133 399 L 603.351 400.758 Q 588.12 405.33 581 410 L 578 387 L 633 387 C 633.075 375.699 632.085 364.376 630 353 L 570 353 C 564.665 383.667 564.675 414.01 570 444 L 596 444 L 603 466 L 574 466 C 580.38 492.159 589.057 507.503 600 512 C 605.815 510.509 611.158 504.853 616 495 C 622.556 503.222 632.899 513.232 647 525 C 671.699 515.365 693.709 498.708 709 479 L 698 466 L 653 466 L 656 444 L 707 444 L 712 410 L 656 410 L 656 423 C 649.845 419.568 646.85 409.397 641 404 Z " fill="rgb(255,255,255)"/></g><path d=" M 442.514 663.881 L 442.514 663.881 L 442.514 663.881 Q 437.387 663.881 433.578 662.807 L 433.578 662.807 L 433.578 650.209 L 433.578 650.209 Q 437.484 651.186 440.707 651.186 L 440.707 651.186 L 440.707 651.186 Q 445.688 651.186 447.836 648.085 L 447.836 648.085 L 447.836 648.085 Q 449.984 644.984 449.984 638.393 L 449.984 638.393 L 449.984 571.498 L 465.121 571.498 L 465.121 638.295 L 465.121 638.295 Q 465.121 650.795 459.408 657.338 L 459.408 657.338 L 459.408 657.338 Q 453.695 663.881 442.514 663.881 Z  M 543.1 642.885 L 526.791 642.885 L 521.615 625.893 L 495.59 625.893 L 490.414 642.885 L 474.105 642.885 L 499.301 571.205 L 517.807 571.205 L 543.1 642.885 L 543.1 642.885 Z  M 499.398 613.197 L 518.002 613.197 L 518.002 613.197 Q 510.824 590.102 509.921 587.074 L 509.921 587.074 L 509.921 587.074 Q 509.018 584.047 508.627 582.289 L 508.627 582.289 L 508.627 582.289 Q 507.016 588.539 499.398 613.197 L 499.398 613.197 L 499.398 613.197 Z  M 615.414 571.498 L 615.414 642.885 L 596.176 642.885 L 565.121 588.881 L 564.682 588.881 L 564.682 588.881 Q 565.609 603.188 565.609 609.291 L 565.609 609.291 L 565.609 642.885 L 552.084 642.885 L 552.084 571.498 L 571.176 571.498 L 602.182 624.965 L 602.523 624.965 L 602.523 624.965 Q 601.791 611.049 601.791 605.287 L 601.791 605.287 L 601.791 571.498 L 615.414 571.498 L 615.414 571.498 Z  M 676.4 571.498 L 691.488 571.498 L 691.488 617.689 L 691.488 617.689 Q 691.488 625.6 687.948 631.557 L 687.948 631.557 L 687.948 631.557 Q 684.408 637.514 677.719 640.688 L 677.719 640.688 L 677.719 640.688 Q 671.029 643.861 661.898 643.861 L 661.898 643.861 L 661.898 643.861 Q 648.129 643.861 640.512 636.806 L 640.512 636.806 L 640.512 636.806 Q 632.895 629.75 632.895 617.494 L 632.895 617.494 L 632.895 571.498 L 647.982 571.498 L 647.982 615.199 L 647.982 615.199 Q 647.982 623.451 651.303 627.309 L 651.303 627.309 L 651.303 627.309 Q 654.623 631.166 662.289 631.166 L 662.289 631.166 L 662.289 631.166 Q 669.711 631.166 673.056 627.284 L 673.056 627.284 L 673.056 627.284 Q 676.4 623.402 676.4 615.102 L 676.4 615.102 L 676.4 571.498 L 676.4 571.498 Z  M 751.107 623.061 L 751.107 623.061 L 751.107 623.061 Q 751.107 632.729 744.149 638.295 L 744.149 638.295 L 744.149 638.295 Q 737.191 643.861 724.789 643.861 L 724.789 643.861 L 724.789 643.861 Q 713.363 643.861 704.574 639.564 L 704.574 639.564 L 704.574 625.502 L 704.574 625.502 Q 711.801 628.725 716.806 630.043 L 716.806 630.043 L 716.806 630.043 Q 721.811 631.361 725.961 631.361 L 725.961 631.361 L 725.961 631.361 Q 730.941 631.361 733.603 629.457 L 733.603 629.457 L 733.603 629.457 Q 736.264 627.553 736.264 623.793 L 736.264 623.793 L 736.264 623.793 Q 736.264 621.693 735.092 620.058 L 735.092 620.058 L 735.092 620.058 Q 733.92 618.422 731.649 616.908 L 731.649 616.908 L 731.649 616.908 Q 729.379 615.395 722.396 612.074 L 722.396 612.074 L 722.396 612.074 Q 715.854 608.998 712.582 606.166 L 712.582 606.166 L 712.582 606.166 Q 709.311 603.334 707.357 599.574 L 707.357 599.574 L 707.357 599.574 Q 705.404 595.814 705.404 590.785 L 705.404 590.785 L 705.404 590.785 Q 705.404 581.313 711.825 575.893 L 711.825 575.893 L 711.825 575.893 Q 718.246 570.473 729.574 570.473 L 729.574 570.473 L 729.574 570.473 Q 735.141 570.473 740.194 571.791 L 740.194 571.791 L 740.194 571.791 Q 745.248 573.109 750.766 575.502 L 750.766 575.502 L 745.883 587.27 L 745.883 587.27 Q 740.17 584.926 736.435 583.998 L 736.435 583.998 L 736.435 583.998 Q 732.699 583.07 729.086 583.07 L 729.086 583.07 L 729.086 583.07 Q 724.789 583.07 722.494 585.072 L 722.494 585.072 L 722.494 585.072 Q 720.199 587.074 720.199 590.297 L 720.199 590.297 L 720.199 590.297 Q 720.199 592.299 721.127 593.788 L 721.127 593.788 L 721.127 593.788 Q 722.055 595.277 724.081 596.669 L 724.081 596.669 L 724.081 596.669 Q 726.107 598.061 733.676 601.674 L 733.676 601.674 L 733.676 601.674 Q 743.686 606.459 747.396 611.269 L 747.396 611.269 L 747.396 611.269 Q 751.107 616.078 751.107 623.061 Z " fill-rule="evenodd" fill="rgb(0,173,181)"/><path d=" M 625.297 459.573 C 636.529 477.177 652.858 491.107 674.255 501.337 L 687.269 486.416 C 689.793 484.239 692.751 483.379 696.112 483.808 C 703.277 485.992 711.693 486.764 721.326 486.096 C 724.209 487.622 726.018 489.513 726.723 491.742 L 728.493 517.681 C 727.012 520.455 724.808 522.286 721.85 523.147 C 648.825 520.441 607.614 484.182 598.153 414.316 C 598.318 412.253 599.855 410.153 602.733 407.99 L 629.67 406.151 C 633.087 407.255 634.896 409.146 635.067 411.797 C 634.992 420.489 636.923 429.054 640.828 437.464 C 641.607 439.082 641.708 440.421 641.1 441.455 L 625.297 459.573 Z " fill="rgb(0,173,181)"/></g></svg>